<svg width="350" height="220" viewBox="0 -1 350 243" fill="none" xmlns="http://www.w3.org/2000/svg">
<g clip-path="url(#clip0_76_287)">
<path d="M108.675 243C98.7179 243 88.7753 242.738 78.8475 242.214C64.662 241.466 49.9935 240.693 36.3596 229.585C26.8222 221.815 18.3753 209.35 11.9324 193.535C7.626 182.816 4.46841 171.187 2.57046 159.057C-0.969935 136.972 -0.849345 113.962 2.92209 91.9601C4.24375 84.4166 6.06574 77.0816 8.36192 70.0603C18.3045 39.8164 36.4391 19.5145 58.116 14.3606C58.295 14.3265 58.476 14.3208 58.6559 14.3437C58.7534 14.3513 58.8505 14.3595 58.9496 14.3534L59.0772 14.2939C59.4041 14.127 59.7399 14.0004 60.0812 13.9154C93.5126 6.60461 128.854 21.3969 162.283 56.692C188.131 83.9858 222.386 98.6831 267.006 101.624L267.639 101.672C280.06 102.721 292.075 110.243 302.387 123.427C312.564 136.44 320.206 153.802 324.485 173.636C325.011 176.054 325.494 178.571 325.919 181.117C326.314 183.483 326.286 185.959 325.838 188.304C325.389 190.649 324.534 192.784 323.357 194.501V194.505L323.246 194.673C322.979 195.064 322.697 195.439 322.409 195.788L322.071 196.197C319.22 199.648 316.967 202.373 314.272 204.49C312.474 205.893 310.562 206.953 308.582 207.646C297.709 211.54 286.667 215.15 275.762 218.377C254.586 224.649 232.852 229.823 211.163 233.755C177.161 239.913 142.935 243.001 108.675 243ZM58.4024 15.4148C58.3358 15.4139 58.2692 15.4205 58.2033 15.4347C36.7291 20.5404 18.7662 40.643 8.92216 70.5876C6.64864 77.5392 4.84467 84.8015 3.53616 92.2703C-0.20091 114.077 -0.32 136.883 3.18891 158.772C5.06827 170.786 8.19525 182.303 12.46 192.92C18.8399 208.58 27.2004 220.92 36.6379 228.608C50.1493 239.616 70.8812 233.01 85 233.755C130.5 229.585 167.24 240.621 211.095 232.677C232.769 228.747 254.49 223.577 275.652 217.309C286.549 214.085 297.583 210.477 308.449 206.585C310.382 205.91 312.248 204.875 314.002 203.507C316.643 201.433 318.874 198.733 321.698 195.315L322.036 194.906C322.284 194.606 322.527 194.285 322.759 193.952L322.826 193.849C325.147 190.413 326.049 185.879 325.302 181.412C324.881 178.893 324.404 176.402 323.883 174.009C315.141 133.491 292.526 104.858 267.608 102.755L266.978 102.707C246.597 101.363 228.761 97.6418 212.454 91.3286C192.989 83.7926 175.994 72.4483 161.944 57.6115C128.642 22.4517 93.4483 7.71442 60.1628 14.9905C59.8519 15.0693 59.546 15.1858 59.2482 15.3389L59.0183 15.4333C58.8877 15.4419 58.7569 15.4396 58.6264 15.4265C58.5496 15.4207 58.4751 15.4148 58.4024 15.4148Z" fill="#80CB35"/>
<path d="M97.0521 65.7426C96.1302 64.4435 95.1874 57.1987 94.0105 56.4633C94.8902 59.3192 94.2515 60.0753 94.2468 63.2097C94.2579 64.9894 94.1164 66.7642 93.8256 68.492H73.8894V45.6374C73.8894 43.5838 74.1647 41.5504 74.6997 39.6531C75.2346 37.7559 76.0188 36.032 77.0073 34.5799C77.9958 33.1279 79.1694 31.976 80.461 31.1902C81.7526 30.4044 83.1369 29.9999 84.5349 30C85.0684 30.0153 85.5986 30.1293 86.1128 30.3393C87.8264 31.0189 89.3882 32.3485 90.6415 34.1946C91.8949 36.0407 92.7957 38.3386 93.2536 40.8575C94.7735 49.0176 97.1906 62.6007 97.0521 65.7426Z" fill="#2F2E41"/>
<path d="M75.0592 93.8581L75.069 76.0443L67.9404 76.98L70.4562 88.2152L69.2788 116.455C68.7077 116.643 68.1862 117.072 67.778 117.688C67.3698 118.304 67.0924 119.081 66.9796 119.924C66.8669 120.768 66.9237 121.642 67.1431 122.439C67.3625 123.236 67.7351 123.922 68.2154 124.413C68.6956 124.904 69.2628 125.18 69.8478 125.206C70.4328 125.232 71.0103 125.007 71.51 124.56C72.0096 124.112 72.4097 123.46 72.6616 122.684C72.9134 121.908 73.0061 121.041 72.9284 120.189L75.0592 93.8581Z" fill="#FFB6B6"/>
<path d="M90.1432 225.586L93.0231 225.585L94.3933 209.268H90.1425L90.1432 225.586Z" fill="#FFB6B6"/>
<path d="M90.2264 222.399L94.7791 222V224.865L99.1075 229.256C99.3213 229.473 99.4823 229.785 99.567 230.145C99.6518 230.506 99.6558 230.897 99.5784 231.262C99.5011 231.626 99.3465 231.945 99.1373 232.171C98.928 232.397 98.675 232.519 98.4152 232.519H92.995L92.0608 229.685L91.696 232.519H89.6524L90.2264 222.399Z" fill="#2F2E41"/>
<path d="M73.4906 225.586L76.3708 225.585L77.7407 209.268H73.4902L73.4906 225.586Z" fill="#FFB6B6"/>
<path d="M73.5741 222.399L78.1267 222V224.865L82.4551 229.256C82.6689 229.473 82.8299 229.785 82.9146 230.145C82.9994 230.506 83.0033 230.897 82.926 231.262C82.8487 231.626 82.6941 231.945 82.4849 232.171C82.2756 232.397 82.0226 232.519 81.7628 232.519H76.3426L75.4084 229.685L75.0436 232.519H73L73.5741 222.399Z" fill="#2F2E41"/>
<path d="M86.5236 56.8069L80.5574 56.9788L76.3461 63.5087L72.9697 64.2361C71.4424 64.5651 70.0383 65.6542 68.992 67.3214C67.9457 68.9886 67.3207 71.1327 67.2214 73.3955L67.8063 78.115H71.3158L73.346 95.6254C72.5566 98.5803 72.5029 100.913 74.1234 101.829L79.1536 115.748L94.0105 105.953C94.7639 104.05 95.0054 102.139 94.2352 100.281L95.2973 73.4753H98.8685C98.8685 68.4619 97.7141 64.2354 94.3223 63.6775C92.9753 63.4634 91.6218 63.3497 90.267 63.3368L86.5236 56.8069Z" fill="#E6E6E6"/>
<path d="M94.0104 105.953C94.0104 105.953 79.5045 109.733 74.1233 101.829C74.1233 101.829 73.577 103.191 72.7538 105.451C72.517 106.1 72.0598 106.541 71.7836 107.328C71.5327 108.043 70.8872 108.922 70.6138 109.734C70.3939 110.386 70.7467 111.239 70.5179 111.944C67.762 120.435 64.5423 132.412 65.2326 140.321C65.6777 145.421 66.5971 157.289 67.5654 170.035C67.641 171.031 67.0283 172.31 67.1043 173.314C67.176 174.261 67.9365 174.931 68.0082 175.88C68.0559 176.51 67.5248 177.153 67.5723 177.782C67.6244 178.472 68.255 179.149 68.3069 179.837C69.6333 197.437 70.8478 213.868 70.8478 213.868H77.6328L78.913 176.34L77.8668 162.66L80.3234 134.994L84.1523 148.57V176.082L87.7376 214.556H94.0104V177.311L94.4784 175.376L94.0104 172.895L94.4784 170.221L94.0104 167.309V105.953Z" fill="#2F2E41"/>
<path d="M88.3548 51.7248C87.4306 53.5281 86.1159 54.8154 84.6271 55.3745C83.1384 55.9337 81.5644 55.7314 80.1643 54.801C78.7643 53.8705 77.6217 52.2675 76.9248 50.2558C76.2278 48.2441 76.018 45.9437 76.33 43.7335C76.6419 41.5233 77.457 39.535 78.641 38.0961C79.825 36.6573 81.3072 35.8536 82.8437 35.8175C84.3802 35.7814 85.8792 36.5149 87.0939 37.8974C88.3086 39.2799 89.1666 41.2288 89.5265 43.4233C89.546 43.5423 89.5624 43.6607 89.5783 43.7836C89.7684 45.1591 89.7576 46.5782 89.5467 47.9471C89.3358 49.316 88.9296 50.6036 88.3548 51.7248Z" fill="#FFB6B6"/>
<path d="M86.9447 46.0567C86.8013 44.999 86.4384 44.0325 85.9059 43.29C85.9585 44.3036 85.8627 45.3219 85.6252 46.2766C83.8465 46.508 82.0599 45.9881 80.4756 44.7782C79.2824 43.5891 77.7639 43.6921 75.9951 44.7782C75.995 43.5144 76.1644 42.263 76.4936 41.0954C76.8227 39.9278 77.3053 38.8669 77.9136 37.9733C78.522 37.0797 79.2442 36.3709 80.0391 35.8874C80.8339 35.4038 81.6858 35.155 82.5462 35.1552H83.716C85.4534 35.1556 87.1195 36.1696 88.348 37.9742C89.5764 39.7788 90.2668 42.2261 90.2671 44.7782C89.1874 45.347 88.0756 45.7748 86.9447 46.0567Z" fill="#2F2E41"/>
<path d="M36.8203 173.135C47.2144 173.135 55.6405 160.758 55.6405 145.49C55.6405 130.222 47.2144 117.844 36.8203 117.844C26.4261 117.844 18 130.222 18 145.49C18 160.758 26.4261 173.135 36.8203 173.135Z" fill="#F0F0F0"/>
<path d="M161.725 55.2911C172.119 55.2911 180.545 42.9137 180.545 27.6455C180.545 12.3773 172.119 0 161.725 0C151.331 0 142.904 12.3773 142.904 27.6455C142.904 42.9137 151.331 55.2911 161.725 55.2911Z" fill="#F0F0F0"/>
<path d="M311.18 186.472C321.574 186.472 330 174.095 330 158.826C330 143.558 321.574 131.181 311.18 131.181C300.786 131.181 292.359 143.558 292.359 158.826C292.359 174.095 300.786 186.472 311.18 186.472Z" fill="#F0F0F0"/>
<path d="M195.675 30.6604V93.3486C195.675 94.6507 195.325 95.9003 194.702 96.8259C194.078 97.7515 193.232 98.2783 192.345 98.2918C192.333 98.2937 192.321 98.2945 192.308 98.2941H187.341C183.367 98.2941 179.556 95.975 176.745 91.8471C173.935 87.7191 172.356 82.1204 172.356 76.2826V30.6604C172.356 29.3488 172.711 28.0909 173.343 27.1634C173.974 26.2359 174.83 25.7149 175.723 25.7149H177.736C176.803 29.7103 189.458 31.3924 190.153 25.7149H192.308C193.201 25.7149 194.058 26.2359 194.689 27.1634C195.32 28.0909 195.675 29.3488 195.675 30.6604Z" fill="#D9F8A7"/>
<path d="M180.935 21.0273C180.935 20.8554 180.982 20.6907 181.064 20.5692C181.147 20.4477 181.259 20.3794 181.376 20.3792H184.377C184.493 20.3796 184.605 20.4481 184.688 20.5696C184.77 20.6911 184.817 20.8557 184.817 21.0273C184.817 21.1988 184.77 21.3634 184.688 21.4849C184.605 21.6064 184.493 21.6749 184.377 21.6754H181.376C181.259 21.6752 181.147 21.6069 181.064 21.4854C180.982 21.3639 180.935 21.1991 180.935 21.0273Z" fill="#3F3D56"/>
<path d="M193.339 106.246H174.365C172.893 106.243 171.482 105.383 170.441 103.854C169.4 102.325 168.814 100.252 168.813 98.0897V54.2681C168.709 54.1582 168.624 54.0134 168.565 53.8457C168.507 53.678 168.476 53.4923 168.477 53.3038V48.8966C168.476 48.7082 168.507 48.5225 168.565 48.3549C168.624 48.1872 168.709 48.0425 168.813 47.9326V46.7498C168.709 46.6399 168.624 46.4952 168.565 46.3275C168.507 46.1599 168.476 45.9742 168.477 45.7858V41.3783C168.476 41.19 168.507 41.0042 168.565 40.8366C168.624 40.6689 168.709 40.5242 168.813 40.4143V38.2765C168.684 38.175 168.577 38.0241 168.502 37.8398C168.427 37.6556 168.388 37.445 168.388 37.2305V32.8233C168.388 32.6087 168.427 32.3981 168.502 32.2138C168.577 32.0295 168.684 31.8785 168.813 31.777V25.919C168.814 23.7567 169.4 21.6836 170.441 20.1546C171.482 18.6256 172.893 17.7656 174.365 17.7631H193.339C194.811 17.7656 196.222 18.6256 197.263 20.1546C198.304 21.6836 198.89 23.7567 198.891 25.919V38.6881C198.991 38.78 199.074 38.9077 199.131 39.0592C199.188 39.2107 199.218 39.3811 199.218 39.5544V47.9581C199.218 48.1313 199.188 48.3018 199.131 48.4533C199.074 48.6049 198.991 48.7327 198.891 48.8246V98.0897C198.89 100.252 198.304 102.325 197.263 103.854C196.222 105.383 194.811 106.243 193.339 106.246ZM174.365 18.8473C173.089 18.8494 171.865 19.5951 170.963 20.9208C170.06 22.2466 169.552 24.0441 169.551 25.919V32.6991L169.196 32.7193C169.177 32.7202 169.16 32.7316 169.147 32.7509C169.134 32.7703 169.127 32.7962 169.126 32.8233V37.2305C169.127 37.2575 169.134 37.2834 169.147 37.3027C169.16 37.3221 169.177 37.3334 169.196 37.3345L169.551 37.3543V41.1755L169.27 41.2772C169.255 41.2827 169.241 41.2956 169.231 41.3139C169.221 41.3322 169.215 41.3548 169.215 41.3783V45.7858C169.215 45.8093 169.221 45.8319 169.231 45.8502C169.241 45.8685 169.255 45.8814 169.27 45.8869L169.551 45.9885V48.6938L169.27 48.7955C169.255 48.801 169.241 48.8139 169.231 48.8322C169.221 48.8505 169.215 48.8731 169.215 48.8966V53.3038C169.215 53.3274 169.221 53.35 169.231 53.3684C169.241 53.3867 169.255 53.3997 169.27 53.4052L169.551 53.5068V98.0897C169.552 99.9646 170.06 101.762 170.963 103.088C171.865 104.414 173.089 105.159 174.365 105.161H193.339C194.615 105.159 195.839 104.414 196.742 103.088C197.644 101.762 198.152 99.9645 198.153 98.0897V47.8964H198.48V39.6163H198.153V25.919C198.152 24.0441 197.644 22.2466 196.742 20.9209C195.839 19.5951 194.615 18.8494 193.339 18.8472L174.365 18.8473Z" fill="#3F3D56"/>
<path d="M186.053 21.6754C186.297 21.6754 186.494 21.3852 186.494 21.0273C186.494 20.6693 186.297 20.3792 186.053 20.3792C185.81 20.3792 185.612 20.6693 185.612 21.0273C185.612 21.3852 185.81 21.6754 186.053 21.6754Z" fill="#3F3D56"/>
<path d="M84.0452 133.147H34.6744C33.9733 133.145 33.3014 132.734 32.8056 132.006C32.3098 131.278 32.0305 130.291 32.0286 129.261V93.9243C32.0304 92.8944 32.3097 91.9075 32.8054 91.1792C33.3011 90.4509 33.973 90.0405 34.6741 90.0377H84.0448C84.7459 90.0404 85.4178 90.4506 85.9136 91.1788C86.4094 91.907 86.6888 92.8939 86.6907 93.9238V129.261C86.6889 130.291 86.4096 131.278 85.9139 132.006C85.4182 132.734 84.7463 133.145 84.0452 133.147Z" fill="white"/>
<path d="M84.0452 133.147H34.6744C33.9733 133.145 33.3014 132.734 32.8056 132.006C32.3098 131.278 32.0305 130.291 32.0286 129.261V93.9243C32.0304 92.8944 32.3097 91.9075 32.8054 91.1792C33.3011 90.4509 33.973 90.0405 34.6741 90.0377H84.0448C84.7459 90.0404 85.4178 90.4506 85.9136 91.1788C86.4094 91.907 86.6888 92.8939 86.6907 93.9238V129.261C86.6889 130.291 86.4096 131.278 85.9139 132.006C85.4182 132.734 84.7463 133.145 84.0452 133.147ZM34.6744 91.1219C34.1689 91.1241 33.6844 91.4201 33.3269 91.9453C32.9694 92.4705 32.768 93.1822 32.7666 93.9249V129.261C32.7681 130.003 32.9696 130.715 33.3271 131.24C33.6847 131.765 34.1692 132.061 34.6748 132.063H84.0445C84.5501 132.061 85.0347 131.765 85.3922 131.24C85.7498 130.715 85.9513 130.003 85.9527 129.26V93.9243C85.9512 93.1817 85.7496 92.47 85.3921 91.9449C85.0346 91.4198 84.5501 91.1239 84.0445 91.1219L34.6744 91.1219Z" fill="#3F3D56"/>
<path d="M62.0058 127.925C52.2689 127.925 42.1158 127.788 38.3276 127.7C37.8292 127.685 37.3546 127.384 37.005 126.862C36.6555 126.34 36.4588 125.638 36.4568 124.905V95.6544C36.457 95.3922 36.5279 95.1407 36.654 94.9551C36.7801 94.7694 36.9511 94.6647 37.1296 94.6637H81.5881C81.7666 94.664 81.9377 94.7682 82.0641 94.9533C82.1904 95.1385 82.2618 95.3896 82.2624 95.6518V115.498C82.2541 118.738 81.3817 121.843 79.8324 124.149C78.2832 126.455 76.1804 127.777 73.9753 127.831C70.4447 127.899 66.264 127.925 62.0058 127.925Z" fill="#D9F8A7"/>
<path d="M78.9491 113.675H38.7773C38.4409 113.673 38.113 113.52 37.8381 113.235C37.5632 112.95 37.3546 112.548 37.2407 112.083L32.6938 93.346C32.6062 92.9847 32.5789 92.5976 32.6142 92.2175C32.6495 91.8374 32.7464 91.4753 32.8967 91.1616C33.047 90.8479 33.2464 90.5918 33.4781 90.4148C33.7097 90.2377 33.967 90.1449 34.2281 90.1442L84.4421 90.0415C84.6808 90.0411 84.9167 90.1176 85.1331 90.2657C85.3494 90.4137 85.5411 90.6297 85.6944 90.8984C85.8478 91.167 85.9592 91.4818 86.0208 91.8206C86.0824 92.1593 86.0927 92.5138 86.0508 92.859L86.0896 92.8831L85.9454 93.3773L85.944 93.3823L80.4474 112.222C80.3222 112.653 80.1133 113.021 79.8469 113.279C79.5805 113.538 79.2683 113.675 78.9491 113.675ZM84.4445 91.1256L34.2295 91.2283C34.0865 91.2287 33.9456 91.2795 33.8186 91.3764C33.6917 91.4734 33.5825 91.6137 33.5001 91.7855C33.4178 91.9573 33.3647 92.1557 33.3454 92.3639C33.326 92.5721 33.341 92.7841 33.389 92.9821L37.9356 111.719C37.9981 111.973 38.1125 112.194 38.2632 112.35C38.4138 112.506 38.5935 112.59 38.7778 112.591H78.9491C79.1238 112.591 79.2946 112.515 79.4404 112.374C79.5862 112.233 79.7005 112.031 79.769 111.795L85.2658 92.9551C85.324 92.7555 85.3476 92.5377 85.3345 92.3214C85.3213 92.105 85.2718 91.8968 85.1904 91.7155C85.109 91.5342 84.9983 91.3854 84.8681 91.2824C84.7379 91.1795 84.5923 91.1256 84.4445 91.1256Z" fill="#3F3D56"/>
<path d="M59.2847 117.753C61.022 117.753 62.4303 115.685 62.4303 113.133C62.4303 110.581 61.022 108.512 59.2847 108.512C57.5475 108.512 56.1392 110.581 56.1392 113.133C56.1392 115.685 57.5475 117.753 59.2847 117.753Z" fill="white"/>
<path d="M184.137 91.0699C185.874 91.0699 187.283 89.0012 187.283 86.4493C187.283 83.8974 185.874 81.8287 184.137 81.8287C182.4 81.8287 180.992 83.8974 180.992 86.4493C180.992 89.0012 182.4 91.0699 184.137 91.0699Z" fill="white"/>
<path d="M303.109 153.471L294.706 141.285C294.297 140.687 293.812 140.214 293.278 139.892C292.744 139.57 292.173 139.406 291.596 139.409H291.566C290.985 139.412 290.409 139.584 289.873 139.915C289.338 140.246 288.852 140.73 288.444 141.339C286.565 144.132 285.497 147.886 285.463 151.813C285.429 155.739 286.433 159.531 288.263 162.393C288.352 162.534 288.444 162.67 288.536 162.805C289.047 163.551 289.612 164.215 290.219 164.784C291.88 166.36 293.817 167.194 295.795 167.185H295.858C297.215 167.178 298.558 166.776 299.809 166.002C301.06 165.228 302.194 164.097 303.146 162.675C303.971 161.446 304.43 159.787 304.423 158.062C304.416 156.336 303.944 154.685 303.109 153.471ZM302.622 161.911C301.062 164.219 299.008 165.667 296.806 166.011C294.604 166.355 292.388 165.573 290.533 163.797C290.002 163.281 289.507 162.691 289.053 162.035C287.242 159.409 286.216 155.833 286.2 152.095C286.185 148.357 287.18 144.763 288.968 142.103C289.308 141.595 289.713 141.19 290.161 140.914C290.608 140.638 291.088 140.495 291.573 140.494H291.596C292.076 140.491 292.552 140.628 292.997 140.896C293.441 141.163 293.845 141.557 294.186 142.055L302.589 154.246C303.284 155.256 303.679 156.631 303.685 158.068C303.691 159.505 303.309 160.887 302.622 161.911Z" fill="#3F3D56"/>
<path d="M275.539 113.477L267.137 101.286C266.31 100.08 265.191 99.4058 264.026 99.4101H264C263.418 99.4135 262.842 99.5863 262.305 99.9184C261.769 100.251 261.283 100.736 260.874 101.345C259.321 103.662 258.314 106.649 258.001 109.869C257.687 113.088 258.084 116.37 259.133 119.234L259.136 119.239C259.569 120.41 260.106 121.491 260.734 122.453C260.804 122.573 260.885 122.692 260.967 122.811C262.896 125.625 265.506 127.2 268.225 127.191H268.292C269.649 127.183 270.992 126.779 272.243 126.004C273.494 125.229 274.628 124.098 275.58 122.676C275.989 122.068 276.312 121.348 276.531 120.556C276.75 119.765 276.861 118.918 276.857 118.064C276.853 117.21 276.735 116.365 276.509 115.578C276.283 114.791 275.953 114.077 275.539 113.477ZM275.052 121.917C274.169 123.237 273.116 124.287 271.955 125.006C270.794 125.725 269.548 126.099 268.288 126.107H268.225C266.333 126.106 264.483 125.283 262.909 123.742C261.334 122.2 260.105 120.01 259.375 117.445C258.646 114.88 258.449 112.056 258.81 109.327C259.171 106.598 260.072 104.087 261.402 102.11C262.09 101.088 263.026 100.509 264.004 100.5C264.982 100.491 265.923 101.052 266.62 102.061L275.023 114.247C275.718 115.259 276.111 116.635 276.117 118.073C276.122 119.511 275.74 120.893 275.052 121.917Z" fill="#3F3D56"/>
<path d="M303.646 157.302L294.383 143.862C293.775 142.983 292.955 142.493 292.102 142.501C291.249 142.509 290.433 143.013 289.833 143.903C289.083 145.017 288.489 146.337 288.086 147.789C287.683 149.24 287.479 150.793 287.485 152.36C287.491 153.928 287.707 155.478 288.121 156.922C288.535 158.366 289.139 159.676 289.898 160.778C290.657 161.879 291.557 162.75 292.545 163.34C293.533 163.93 294.591 164.229 295.658 164.218C296.725 164.208 297.78 163.888 298.763 163.278C299.746 162.668 300.637 161.78 301.386 160.664L303.646 157.302Z" fill="#D9F8A7"/>
<path d="M276.078 117.306L266.814 103.866C266.207 102.987 265.387 102.497 264.534 102.505C263.681 102.513 262.865 103.017 262.265 103.907C261.515 105.021 260.921 106.341 260.518 107.792C260.115 109.244 259.911 110.797 259.917 112.364C259.923 113.931 260.139 115.481 260.553 116.926C260.967 118.37 261.571 119.68 262.33 120.782C263.089 121.883 263.989 122.754 264.977 123.344C265.965 123.934 267.023 124.233 268.09 124.222C269.157 124.212 270.212 123.892 271.195 123.282C272.177 122.672 273.069 121.784 273.818 120.668L276.078 117.306Z" fill="#D9F8A7"/>
<path d="M293.467 165.673L293.245 166.529C292.204 165.949 291.196 165.367 290.219 164.784C272.919 154.414 264.66 142.277 259.136 119.239L259.133 119.234C258.87 118.149 258.616 117.04 258.369 115.905L258.952 115.629C259.147 116.72 259.432 117.772 259.8 118.762C260.103 120.025 260.414 121.255 260.734 122.453C265.926 141.897 273.584 153.01 288.263 162.393C289.001 162.865 289.758 163.333 290.533 163.797C291.433 164.658 292.424 165.292 293.467 165.673Z" fill="#3F3D56"/>
<path d="M266.983 126.204L266.464 126.976L285.63 154.783L286.149 154.011L266.983 126.204Z" fill="#3F3D56"/>
<path d="M98.6898 89.734L98.6996 71.9201L91.571 72.8559L94.0868 84.091L84.9545 104.426C84.3834 104.615 83.862 105.043 83.4538 105.659C83.0455 106.275 82.7681 107.052 82.6554 107.896C82.5427 108.739 82.5995 109.613 82.8189 110.41C83.0383 111.207 83.4109 111.893 83.8911 112.384C84.3714 112.876 84.9386 113.151 85.5236 113.177C86.1086 113.203 86.6861 112.979 87.1857 112.531C87.6853 112.083 88.0855 111.431 88.3373 110.655C88.5892 109.879 88.6819 109.012 88.6041 108.16L98.6898 89.734Z" fill="#FFB6B6"/>
</g>
<defs>
<clipPath id="clip0_76_287">
<rect width="330" height="243" fill="white"/>
</clipPath>
</defs>
</svg>
