<svg width="611" height="538" viewBox="0 0 611 538" fill="none" xmlns="http://www.w3.org/2000/svg">
<g clip-path="url(#clip0_582_48)">
<path d="M169.615 315.849H49.2013V436.096H169.615V315.849Z" fill="#3F3D56"/>
<path d="M218.816 477.907H0V274.039H218.816V477.907ZM1.29477 476.524H217.521V275.421H1.29477V476.524Z" fill="#3F3D56"/>
<path d="M518.828 196.785C500.598 196.785 482.778 191.015 467.62 180.203C452.463 169.392 440.649 154.025 433.672 136.046C426.696 118.067 424.871 98.2835 428.427 79.1972C431.984 60.1109 440.762 42.579 453.653 28.8185C466.543 15.058 482.967 5.68706 500.846 1.89057C518.726 -1.90593 537.259 0.0425772 554.101 7.48969C570.943 14.9368 585.338 27.548 595.466 43.7286C605.594 59.9092 611 78.9324 611 98.3926C610.972 124.479 601.253 149.488 583.973 167.934C566.693 186.38 543.265 196.756 518.828 196.785ZM518.828 1.45765C500.868 1.45765 483.312 7.14278 468.379 17.7941C453.446 28.4455 441.807 43.5847 434.934 61.2972C428.061 79.0098 426.263 98.5002 429.767 117.304C433.27 136.107 441.919 153.379 454.618 166.936C467.318 180.493 483.498 189.725 501.113 193.465C518.727 197.205 536.986 195.286 553.578 187.949C570.171 180.612 584.353 168.188 594.331 152.247C604.309 136.306 609.635 117.565 609.635 98.3926C609.607 72.6928 600.032 48.0538 583.008 29.8812C565.984 11.7087 542.903 1.4866 518.828 1.45765Z" fill="#3F3D56"/>
<path d="M516.097 145.767C540.607 145.767 560.476 124.557 560.476 98.3926C560.476 72.2285 540.607 51.0184 516.097 51.0184C491.587 51.0184 471.718 72.2285 471.718 98.3926C471.718 124.557 491.587 145.767 516.097 145.767Z" fill="#3F3D56"/>
<path d="M590.063 242.044L563.7 258.292L578.921 286.433L605.283 270.186L590.063 242.044Z" fill="#FF6584"/>
<path d="M187.737 84.3311L161.375 100.578L176.595 128.72L202.958 112.472L187.737 84.3311Z" fill="#3F3D56"/>
<path d="M553.336 419.36L526.974 435.607L542.194 463.749L568.556 447.501L553.336 419.36Z" fill="#E5E5E5"/>
<path d="M120.414 364.224H98.4025V387.721H120.414V364.224Z" fill="#8CB7F8"/>
<path d="M516.097 110.054C522.13 110.054 527.021 104.833 527.021 98.3926C527.021 91.9522 522.13 86.7313 516.097 86.7313C510.064 86.7313 505.173 91.9522 505.173 98.3926C505.173 104.833 510.064 110.054 516.097 110.054Z" fill="#8CB7F8"/>
<path d="M478.749 256.726L422.2 291.578L454.849 351.944L511.398 317.092L478.749 256.726Z" fill="#8CB7F8"/>
<path d="M282.453 295.862C281.438 294.468 280.72 292.854 280.352 291.133C279.984 289.411 279.974 287.625 280.323 285.899C280.671 284.173 281.37 282.55 282.37 281.143C283.37 279.737 284.647 278.581 286.11 277.759L283.747 250.276L299.043 244.67L301.868 283.531C303 286.247 303.159 289.312 302.316 292.145C301.472 294.978 299.685 297.382 297.291 298.902C294.898 300.422 292.066 300.952 289.331 300.391C286.597 299.831 284.149 298.219 282.453 295.862Z" fill="#FFB8B8"/>
<path d="M298.873 138.126C298.873 138.126 309.37 114.612 318.696 122.883C328.023 131.155 305.909 200.681 305.909 200.681L302.546 268.176L284.82 266.285L279.809 200.526L298.873 138.126Z" fill="#CCCCCC"/>
<path d="M158.084 486.008L171.242 497.378L218.587 448.611L199.167 431.83L158.084 486.008Z" fill="#FFB8B8"/>
<path d="M158.205 478.522L184.118 500.913L184.119 500.914C188.499 504.699 191.29 510.186 191.88 516.168C192.47 522.15 190.81 528.137 187.265 532.812L186.83 533.385L144.403 496.723L158.205 478.522Z" fill="#2F2E41"/>
<path d="M340.951 517.571L357.88 517.57L365.933 447.866L340.948 447.867L340.951 517.571Z" fill="#FFB8B8"/>
<path d="M336.633 511.67L369.972 511.669H369.973C375.608 511.669 381.012 514.059 384.996 518.312C388.98 522.565 391.219 528.334 391.219 534.349V535.086L336.634 535.088L336.633 511.67Z" fill="#2F2E41"/>
<path d="M370.656 190.792C370.656 190.792 402.415 232.065 395.511 273.337C388.607 314.61 383.084 345.565 383.084 345.565L372.037 438.429C372.037 438.429 376.18 463.72 370.656 470.237C370.656 470.237 378.941 485.598 363.752 491.494C348.563 497.39 340.367 489.457 340.367 489.457C340.367 489.457 329.231 472.332 336.135 467.91L339.044 285.666L228.43 439.903C228.43 439.903 226.397 458.665 212.224 458.865L195.29 472.332L175.958 460.54L185.624 447.273C185.624 447.273 180.1 432.533 192.528 429.585L264.332 329.351L282.283 277.76C282.283 277.76 291.948 237.961 318.184 221.746V204.493L370.656 190.792Z" fill="#2F2E41"/>
<path d="M316.113 119.301C320.294 114.026 326.146 110.578 332.555 109.612C338.964 108.646 345.482 110.23 350.868 114.063L352.015 114.879C364.272 129.696 372.509 147.801 375.841 167.246L381.012 197.425L316.113 212.432L300.899 156.418C298.967 149.309 299.432 141.702 302.212 134.92C304.992 128.138 309.911 122.612 316.113 119.301Z" fill="#CCCCCC"/>
<path d="M422.739 302.278C420.94 301.65 419.291 300.609 417.91 299.227C416.528 297.846 415.447 296.158 414.743 294.282C414.039 292.407 413.728 290.389 413.834 288.371C413.939 286.354 414.457 284.385 415.352 282.605L396.631 258.146L407.78 242.376L433.764 277.313C436.466 279.116 438.455 281.915 439.354 285.179C440.252 288.443 439.998 291.946 438.639 295.023C437.28 298.1 434.911 300.538 431.98 301.876C429.05 303.213 425.762 303.356 422.739 302.278Z" fill="#FFB8B8"/>
<path d="M343.73 141.412C343.73 141.412 339.587 111.931 353.396 113.405C367.204 114.879 387.917 195.951 387.917 195.951L425.199 262.282L407.248 272.6L363.062 213.639L343.73 141.412Z" fill="#CCCCCC"/>
<path d="M369.016 98.3121H303.262C301.909 98.3104 300.612 97.7361 299.656 96.7152C298.699 95.6942 298.161 94.3099 298.16 92.8661V62.6107C298.16 51.8583 302.161 41.5462 309.284 33.9431C316.406 26.3399 326.066 22.0685 336.139 22.0685C346.211 22.0685 355.872 26.3399 362.994 33.9431C370.116 41.5462 374.118 51.8583 374.118 62.6107V92.8661C374.116 94.31 373.578 95.6942 372.622 96.7152C371.665 97.7361 370.369 98.3104 369.016 98.3121Z" fill="#2F2E41"/>
<path d="M368.376 82.1412C375.752 67.7367 370.793 49.6764 357.299 41.8022C343.805 33.928 326.887 39.2218 319.511 53.6263C312.134 68.0307 317.093 86.0911 330.587 93.9653C344.081 101.839 360.999 96.5456 368.376 82.1412Z" fill="#FFB8B8"/>
<path d="M383.103 65.6363H348.06L347.701 59.4741L345.904 65.6363H340.509L339.796 53.4231L336.235 65.6363H325.795V65.0312C325.795 47.3472 337.541 32.9605 351.978 32.9605H356.919C371.357 32.9605 383.103 47.3471 383.103 65.0312L383.103 65.6363Z" fill="#2F2E41"/>
<path d="M349.511 103.96C349.082 103.959 348.655 103.924 348.232 103.855L306.522 96.9967V50.6214C306.522 48.2757 306.955 45.9529 307.796 43.7857C308.637 41.6185 309.869 39.6494 311.423 37.9907C312.977 36.332 314.822 35.0162 316.852 34.1186C318.882 33.2209 321.058 32.7589 323.255 32.7589H352.436L351.299 33.9939C335.484 51.1825 347.399 79.054 355.909 94.1378C356.534 95.222 356.816 96.4917 356.714 97.7599C356.612 99.0281 356.132 100.228 355.343 101.183C354.619 102.071 353.722 102.78 352.714 103.259C351.707 103.739 350.614 103.978 349.511 103.96Z" fill="#2F2E41"/>
</g>
<defs>
<clipPath id="clip0_582_48">
<rect width="611" height="538" fill="white"/>
</clipPath>
</defs>
</svg>
