<svg width="38" height="21" viewBox="0 0 38 21" fill="none" xmlns="http://www.w3.org/2000/svg">
<g clip-path="url(#clip0_10_138)">
<path d="M0.190475 0.203201H37.2738V7.08706H0.190475V0.203201Z" fill="#FF9933"/>
<path d="M0.190475 7.08705H37.2738V13.9709H0.190475V7.08705Z" fill="white"/>
<path d="M0.190475 13.9709H37.2738V20.8548H0.190475V13.9709Z" fill="#128807"/>
<path d="M18.7321 13.2825C20.7802 13.2825 22.4405 12.0497 22.4405 10.529C22.4405 9.00825 20.7802 7.77545 18.7321 7.77545C16.6841 7.77545 15.0238 9.00825 15.0238 10.529C15.0238 12.0497 16.6841 13.2825 18.7321 13.2825Z" fill="#000088"/>
<path d="M18.7321 12.9383C20.5242 12.9383 21.9769 11.8596 21.9769 10.529C21.9769 9.19835 20.5242 8.11964 18.7321 8.11964C16.9401 8.11964 15.4874 9.19835 15.4874 10.529C15.4874 11.8596 16.9401 12.9383 18.7321 12.9383Z" fill="white"/>
<path d="M18.7321 11.0109C19.0906 11.0109 19.3811 10.7951 19.3811 10.529C19.3811 10.2629 19.0906 10.0471 18.7321 10.0471C18.3737 10.0471 18.0832 10.2629 18.0832 10.529C18.0832 10.7951 18.3737 11.0109 18.7321 11.0109Z" fill="#000088"/>
<path d="M21.9273 10.9672C22.0187 10.9761 22.1025 10.9284 22.1146 10.8605C22.1266 10.7927 22.0623 10.7304 21.9709 10.7215C21.8795 10.7126 21.7957 10.7603 21.7837 10.8282C21.7716 10.896 21.836 10.9583 21.9273 10.9672Z" fill="#000088"/>
<path d="M18.7321 12.9383L18.8434 11.4927L18.7321 10.8043L18.6209 11.4927L18.7321 12.9383Z" fill="#000088"/>
<path d="M21.657 11.5724C21.7376 11.5953 21.8352 11.56 21.8751 11.4936C21.915 11.4271 21.882 11.3546 21.8015 11.3317C21.721 11.3087 21.6234 11.344 21.5835 11.4105C21.5436 11.477 21.5765 11.5495 21.657 11.5724Z" fill="#000088"/>
<path d="M17.8725 12.8612L18.4908 11.4749L18.6554 10.7903L18.3149 11.4418L17.8725 12.8612Z" fill="#000088"/>
<path d="M21.1956 12.101C21.264 12.1392 21.3687 12.1234 21.4296 12.0657C21.4904 12.0079 21.4843 11.9301 21.4159 11.8919C21.3475 11.8537 21.2428 11.8695 21.1819 11.9273C21.1211 11.985 21.1272 12.0628 21.1956 12.101Z" fill="#000088"/>
<path d="M17.0966 12.6216L18.1711 11.3967L18.5599 10.7614L18.0046 11.3262L17.0966 12.6216Z" fill="#000088"/>
<path d="M20.5666 12.5219C20.6185 12.5732 20.7232 12.5786 20.8006 12.5339C20.8779 12.4892 20.8984 12.4114 20.8465 12.3601C20.7946 12.3089 20.6898 12.3035 20.6125 12.3482C20.5352 12.3929 20.5147 12.4707 20.5666 12.5219Z" fill="#000088"/>
<path d="M16.4289 12.239L17.8874 11.2602L18.4787 10.7173L17.7476 11.1562L16.4289 12.239Z" fill="#000088"/>
<path d="M19.8279 12.7959C19.8683 12.8629 19.9659 12.8991 20.0459 12.8766C20.126 12.8542 20.1581 12.7817 20.1177 12.7148C20.0773 12.6478 19.9796 12.6116 19.8996 12.634C19.8196 12.6565 19.7875 12.7289 19.8279 12.7959Z" fill="#000088"/>
<path d="M15.9317 11.7224L17.6699 11.0977L18.4014 10.678L17.5395 10.932L15.9317 11.7224Z" fill="#000088"/>
<path d="M18.9982 12.927C19.0153 12.9988 19.0992 13.0528 19.1855 13.0478C19.2718 13.0428 19.3279 12.9805 19.3107 12.9088C19.2936 12.837 19.2098 12.783 19.1235 12.788C19.0372 12.793 18.9811 12.8553 18.9982 12.927Z" fill="#000088"/>
<path d="M15.6055 11.1349L17.5122 10.8821L18.3663 10.6179L17.4394 10.6872L15.6055 11.1349Z" fill="#000088"/>
<path d="M18.1316 12.8952C18.1253 12.9595 18.1989 13.0217 18.2959 13.0342C18.393 13.0466 18.4768 13.0045 18.4832 12.9402C18.4895 12.8758 18.4159 12.8136 18.3189 12.8012C18.2218 12.7887 18.138 12.8308 18.1316 12.8952Z" fill="#000088"/>
<path d="M15.4933 10.4884L17.4381 10.5854L18.3553 10.5695L17.4261 10.5013L15.4933 10.4884Z" fill="#000088"/>
<path d="M17.3303 12.7049C17.2977 12.7668 17.3424 12.8393 17.4302 12.8668C17.518 12.8943 17.6156 12.8664 17.6482 12.8044C17.6809 12.7425 17.6361 12.67 17.5483 12.6425C17.4605 12.615 17.3629 12.643 17.3303 12.7049Z" fill="#000088"/>
<path d="M15.5938 9.89955L17.4552 10.3556L18.378 10.4636L17.5046 10.2077L15.5938 9.89955Z" fill="#000088"/>
<path d="M16.6322 12.3709C16.5712 12.4287 16.5772 12.5065 16.6455 12.5446C16.7138 12.5828 16.8185 12.5669 16.8795 12.5091C16.9404 12.4513 16.9344 12.3735 16.8661 12.3353C16.7979 12.2972 16.6931 12.3131 16.6322 12.3709Z" fill="#000088"/>
<path d="M15.9317 9.33564L17.5394 10.126L18.4014 10.38L17.67 9.96025L15.9317 9.33564Z" fill="#000088"/>
<path d="M16.0642 11.903C15.9863 11.9481 15.9646 12.0259 16.0159 12.0768C16.0672 12.1276 16.1719 12.1322 16.2499 12.0871C16.3278 12.0419 16.3495 11.9641 16.2982 11.9133C16.247 11.8625 16.1422 11.8579 16.0642 11.903Z" fill="#000088"/>
<path d="M16.4492 8.83357L17.7202 9.91125L18.4585 10.3261L17.9004 9.77795L16.4492 8.83357Z" fill="#000088"/>
<path d="M15.6767 11.3404C15.5878 11.3691 15.5413 11.4416 15.5728 11.5023C15.6043 11.5629 15.702 11.5888 15.7909 11.56C15.8798 11.5313 15.9263 11.4588 15.8948 11.3981C15.8633 11.3375 15.7656 11.3116 15.6767 11.3404Z" fill="#000088"/>
<path d="M17.1208 8.4471L17.9719 9.73868L18.5357 10.2858L18.1866 9.64668L17.1208 8.4471Z" fill="#000088"/>
<path d="M15.5001 10.7242C15.4048 10.7357 15.3342 10.7979 15.3424 10.8633C15.3506 10.9286 15.4344 10.9723 15.5296 10.9609C15.6249 10.9495 15.6955 10.8872 15.6873 10.8219C15.6792 10.7565 15.5953 10.7128 15.5001 10.7242Z" fill="#000088"/>
<path d="M17.9093 8.20536L18.2657 9.6218L18.6191 10.2594L18.5147 9.57176L17.9093 8.20536Z" fill="#000088"/>
<path d="M15.5478 10.0848C15.4624 10.0792 15.3786 10.1322 15.3605 10.2033C15.3425 10.2744 15.3972 10.3367 15.4826 10.3423C15.568 10.348 15.6518 10.295 15.6698 10.2239C15.6878 10.1528 15.6332 10.0905 15.5478 10.0848Z" fill="#000088"/>
<path d="M18.7952 8.12304L18.6616 9.56744L18.6691 10.2502L18.7579 9.5606L18.7952 8.12304Z" fill="#000088"/>
<path d="M15.8076 9.48627C15.7274 9.46304 15.6298 9.49785 15.5895 9.56402C15.5493 9.6302 15.5817 9.70268 15.6619 9.72592C15.742 9.74915 15.8396 9.71434 15.8799 9.64817C15.9201 9.58199 15.8877 9.50951 15.8076 9.48627Z" fill="#000088"/>
<path d="M19.5928 8.19733L18.974 9.58263L18.8073 10.2674L19.1473 9.61662L19.5928 8.19733Z" fill="#000088"/>
<path d="M16.2693 8.95718C16.2013 8.91886 16.0965 8.9345 16.0353 8.99213C15.9742 9.04976 15.9797 9.12754 16.0478 9.16587C16.1158 9.20419 16.2206 9.18855 16.2818 9.13092C16.3429 9.07329 16.3374 8.99551 16.2693 8.95718Z" fill="#000088"/>
<path d="M20.3685 8.43656L19.2938 9.66103L18.9036 10.2964L19.4585 9.73188L20.3685 8.43656Z" fill="#000088"/>
<path d="M16.8992 8.5356C16.8481 8.48457 16.7434 8.47961 16.6652 8.52452C16.5871 8.56944 16.5652 8.64722 16.6163 8.69826C16.6674 8.74929 16.7721 8.75425 16.8503 8.70934C16.9284 8.66442 16.9503 8.58664 16.8992 8.5356Z" fill="#000088"/>
<path d="M21.037 8.81848L19.578 9.79839L18.9839 10.3411L19.7144 9.90152L21.037 8.81848Z" fill="#000088"/>
<path d="M17.6364 8.26207C17.5959 8.19506 17.4983 8.15891 17.4183 8.18132C17.3383 8.20373 17.3062 8.27622 17.3466 8.34322C17.3871 8.41022 17.4847 8.44637 17.5647 8.42396C17.6447 8.40155 17.6768 8.32907 17.6364 8.26207Z" fill="#000088"/>
<path d="M21.5326 9.33564L19.7943 9.96025L19.0629 10.38L19.9248 10.126L21.5326 9.33564Z" fill="#000088"/>
<path d="M18.4661 8.13097C18.449 8.05922 18.3652 8.00513 18.2788 8.01016C18.1925 8.01519 18.1364 8.07744 18.1535 8.14919C18.1706 8.22093 18.2545 8.27502 18.3408 8.26999C18.4271 8.26496 18.4832 8.20271 18.4661 8.13097Z" fill="#000088"/>
<path d="M21.8588 9.92312L19.9521 10.1758L19.0979 10.44L20.0249 10.3708L21.8588 9.92312Z" fill="#000088"/>
<path d="M19.3336 8.16393C19.3394 8.1002 19.265 8.03795 19.1674 8.02491C19.0698 8.01187 18.986 8.05297 18.9802 8.11671C18.9744 8.18045 19.0488 8.24269 19.1464 8.25573C19.244 8.26877 19.3278 8.22767 19.3336 8.16393Z" fill="#000088"/>
<path d="M21.9706 10.5737L20.026 10.4753L19.1093 10.4843L20.0387 10.551L21.9706 10.5737Z" fill="#000088"/>
<path d="M20.1355 8.35434C20.1673 8.2931 20.1212 8.22062 20.0326 8.19244C19.9439 8.16427 19.8463 8.19107 19.8145 8.25231C19.7828 8.31355 19.8288 8.38603 19.9175 8.4142C20.0061 8.44238 20.1037 8.41558 20.1355 8.35434Z" fill="#000088"/>
<path d="M21.8717 11.1614L20.0075 10.7043L19.0851 10.5915L19.9605 10.8463L21.8717 11.1614Z" fill="#000088"/>
<path d="M20.8453 8.69649C20.899 8.64387 20.8812 8.56609 20.8056 8.52275C20.73 8.47941 20.6252 8.48692 20.5716 8.53954C20.518 8.59215 20.5358 8.66993 20.6114 8.71327C20.6869 8.75661 20.7917 8.7491 20.8453 8.69649Z" fill="#000088"/>
<path d="M21.5467 11.7385L19.9057 10.9424L19.0488 10.6618L19.8034 11.0759L21.5467 11.7385Z" fill="#000088"/>
<path d="M21.4133 9.16435C21.4839 9.12439 21.4937 9.04661 21.4351 8.99061C21.3765 8.93461 21.2717 8.9216 21.2011 8.96155C21.1305 9.0015 21.1207 9.07929 21.1793 9.13529C21.2379 9.19129 21.3427 9.2043 21.4133 9.16435Z" fill="#000088"/>
<path d="M21.0319 12.2363L19.7213 11.1544L18.989 10.72L19.5747 11.2639L21.0319 12.2363Z" fill="#000088"/>
<path d="M21.7987 9.72525C21.8814 9.70071 21.918 9.62823 21.8803 9.56335C21.8427 9.49848 21.7451 9.46578 21.6623 9.49032C21.5795 9.51485 21.543 9.58734 21.5806 9.65221C21.6183 9.71709 21.7159 9.74979 21.7987 9.72525Z" fill="#000088"/>
<path d="M20.361 12.6183L19.4687 11.3241L18.9111 10.7647L19.2889 11.4011L20.361 12.6183Z" fill="#000088"/>
<path d="M21.9755 10.3413C22.0645 10.334 22.125 10.2717 22.1106 10.2022C22.0962 10.1327 22.0123 10.0823 21.9233 10.0895C21.8343 10.0968 21.7739 10.159 21.7883 10.2285C21.8027 10.2981 21.8865 10.3485 21.9755 10.3413Z" fill="#000088"/>
<path d="M19.5812 12.8585L19.1631 11.4399L18.8189 10.7928L18.9666 11.4783L19.5812 12.8585Z" fill="#000088"/>
</g>
<defs>
<clipPath id="clip0_10_138">
<rect width="37.0833" height="20.6516" fill="white" transform="translate(0.190475 0.203201)"/>
</clipPath>
</defs>
</svg>
