<svg width="652" height="532" viewBox="0 0 652 532" fill="none" xmlns="http://www.w3.org/2000/svg">
<g clip-path="url(#clip0_323_8)">
<path d="M26.6373 345.681C27.1799 365.949 30.5749 386.04 36.7222 405.361C36.8627 405.809 37.0099 406.251 37.1572 406.699H74.793C74.7528 406.297 74.7126 405.849 74.6725 405.361C72.163 376.511 57.695 200.927 74.9937 170.9C73.4813 173.336 23.7197 254.015 26.6373 345.681Z" fill="#F0F0F0"/>
<path d="M29.4614 405.361C29.776 405.809 30.1039 406.257 30.4385 406.699H58.672C58.4578 406.318 58.2103 405.869 57.9225 405.361C53.2582 396.942 39.4527 371.773 26.6375 345.681C12.8654 317.642 0.230903 288.539 1.29498 278.005C0.966953 280.381 -8.5625 352.802 29.4614 405.361Z" fill="#F0F0F0"/>
<path d="M576.26 56.9001C593.559 86.9271 579.091 262.511 576.581 291.361C576.541 291.849 576.501 292.297 576.461 292.699H614.097C614.244 292.251 614.391 291.809 614.532 291.361C620.679 272.04 624.074 251.949 624.617 231.681C627.534 140.015 577.773 59.336 576.26 56.9001Z" fill="#F0F0F0"/>
<path d="M649.959 164.005C651.023 174.539 638.388 203.642 624.616 231.681C611.801 257.773 597.996 282.942 593.331 291.361C593.044 291.869 592.796 292.317 592.582 292.699H620.815C621.15 292.257 621.478 291.809 621.792 291.361C659.816 238.802 650.287 166.381 649.959 164.005Z" fill="#F0F0F0"/>
<path d="M37.3395 405.9H275.339C277.195 405.898 278.975 405.159 280.287 403.847C281.599 402.535 282.337 400.756 282.339 398.9V88.8997C282.337 87.0438 281.599 85.2646 280.287 83.9523C278.975 82.64 277.195 81.9018 275.339 81.8997H37.3395C35.4836 81.9018 33.7043 82.64 32.392 83.9523C31.0797 85.2646 30.3416 87.0438 30.3395 88.8997V398.9C30.3416 400.756 31.0797 402.535 32.392 403.847C33.7043 405.159 35.4836 405.898 37.3395 405.9ZM275.339 83.8997C276.665 83.9013 277.936 84.4286 278.873 85.3659C279.811 86.3033 280.338 87.5741 280.339 88.8997V398.9C280.338 400.225 279.811 401.496 278.873 402.434C277.936 403.371 276.665 403.898 275.339 403.9H37.3395C36.0139 403.898 34.743 403.371 33.8057 402.434C32.8683 401.496 32.341 400.225 32.3395 398.9V88.8997C32.341 87.5741 32.8683 86.3033 33.8057 85.3659C34.743 84.4286 36.0139 83.9013 37.3395 83.8997H275.339Z" fill="#E6E6E6"/>
<path d="M110.127 217.699H211.127C212.983 217.697 214.762 216.959 216.074 215.646C217.387 214.334 218.125 212.555 218.127 210.699V131.699C218.125 129.843 217.387 128.064 216.074 126.751C214.762 125.439 212.983 124.701 211.127 124.699H110.127C108.271 124.701 106.492 125.439 105.18 126.751C103.867 128.064 103.129 129.843 103.127 131.699V210.699C103.129 212.555 103.867 214.334 105.18 215.646C106.492 216.959 108.271 217.697 110.127 217.699Z" fill="#E6E6E6"/>
<path d="M110.339 349.9H211.339C213.195 349.898 214.975 349.159 216.287 347.847C217.599 346.535 218.337 344.756 218.339 342.9V263.9C218.337 262.044 217.599 260.265 216.287 258.952C214.975 257.64 213.195 256.902 211.339 256.9H110.339C108.484 256.902 106.704 257.64 105.392 258.952C104.08 260.265 103.342 262.044 103.339 263.9V342.9C103.342 344.756 104.08 346.535 105.392 347.847C106.704 349.159 108.484 349.898 110.339 349.9ZM211.339 258.9C212.665 258.901 213.936 259.429 214.873 260.366C215.811 261.303 216.338 262.574 216.339 263.9V342.9C216.338 344.225 215.811 345.496 214.873 346.434C213.936 347.371 212.665 347.898 211.339 347.9H110.339C109.014 347.898 107.743 347.371 106.806 346.434C105.868 345.496 105.341 344.225 105.339 342.9V263.9C105.341 262.574 105.868 261.303 106.806 260.366C107.743 259.429 109.014 258.901 110.339 258.9H211.339Z" fill="#3F3D56"/>
<path d="M82.3395 371.9H183.339C185.195 371.898 186.975 371.159 188.287 369.847C189.599 368.535 190.337 366.756 190.339 364.9V285.9C190.337 284.044 189.599 282.265 188.287 280.952C186.975 279.64 185.195 278.902 183.339 278.9H82.3395C80.4836 278.902 78.7044 279.64 77.3922 280.952C76.0799 282.265 75.3416 284.044 75.3395 285.9V364.9C75.3416 366.756 76.0799 368.535 77.3922 369.847C78.7044 371.159 80.4836 371.898 82.3395 371.9Z" fill="#ABDC66"/>
<path d="M121.508 348.769H172.213C172.277 348.77 172.34 348.765 172.403 348.754L148.422 307.215C148.275 306.956 148.063 306.741 147.806 306.591C147.549 306.442 147.257 306.363 146.96 306.363C146.663 306.363 146.371 306.442 146.114 306.591C145.858 306.741 145.645 306.956 145.499 307.215L129.405 335.091L128.633 336.425L121.508 348.769Z" fill="white"/>
<path opacity="0.2" d="M121.509 348.769H138.82L130.322 336.425L129.71 335.536L129.405 335.091L128.634 336.425L121.509 348.769Z" fill="black"/>
<path d="M93.2762 348.769H137.132L128.634 336.425L128.022 335.535L116.948 319.449C116.752 319.203 116.507 319.001 116.228 318.856C115.949 318.711 115.643 318.627 115.329 318.608C115.015 318.589 114.701 318.637 114.407 318.747C114.113 318.858 113.845 319.029 113.622 319.25C113.564 319.313 113.511 319.379 113.462 319.449L93.2762 348.769Z" fill="white"/>
<path d="M95.3297 307.054C91.1812 307.054 87.8182 303.691 87.8182 299.542C87.8182 295.394 91.1812 292.031 95.3297 292.031C99.4782 292.031 102.841 295.394 102.841 299.542C102.841 303.691 99.4782 307.054 95.3297 307.054Z" fill="white"/>
<path d="M378.706 405.809H616.706C618.562 405.807 620.341 405.069 621.653 403.757C622.965 402.444 623.704 400.665 623.706 398.809V319.809C623.704 317.953 622.965 316.174 621.653 314.862C620.341 313.55 618.562 312.811 616.706 312.809H378.706C376.85 312.811 375.071 313.55 373.758 314.862C372.446 316.174 371.708 317.953 371.706 319.809V398.809C371.708 400.665 372.446 402.444 373.758 403.756C375.071 405.069 376.85 405.807 378.706 405.809Z" fill="#E6E6E6"/>
<path d="M379.706 292.809H617.706C619.562 292.807 621.341 292.069 622.653 290.757C623.965 289.444 624.704 287.665 624.706 285.809V92.8092C624.704 90.9533 623.965 89.174 622.653 87.8617C621.341 86.5494 619.562 85.8112 617.706 85.8092H379.706C377.85 85.8113 376.071 86.5495 374.758 87.8618C373.446 89.1741 372.708 90.9533 372.706 92.8092V285.809C372.708 287.665 373.446 289.444 374.758 290.756C376.071 292.069 377.85 292.807 379.706 292.809ZM617.706 87.8092C619.031 87.8107 620.302 88.338 621.24 89.2753C622.177 90.2127 622.704 91.4836 622.706 92.8092V285.809C622.704 287.135 622.177 288.406 621.24 289.343C620.302 290.28 619.031 290.808 617.706 290.809H379.706C378.38 290.808 377.109 290.28 376.172 289.343C375.235 288.406 374.707 287.135 374.706 285.809V92.8092C374.707 91.4836 375.235 90.2127 376.172 89.2753C377.109 88.338 378.38 87.8107 379.706 87.8092H617.706Z" fill="#3F3D56"/>
<path d="M340.706 327.809H578.706C580.562 327.807 582.341 327.069 583.653 325.756C584.965 324.444 585.703 322.665 585.706 320.809V127.809C585.704 125.953 584.965 124.174 583.653 122.862C582.341 121.55 580.562 120.811 578.706 120.809H340.706C338.85 120.811 337.071 121.55 335.758 122.862C334.446 124.174 333.708 125.953 333.706 127.809V320.809C333.708 322.665 334.446 324.444 335.758 325.756C337.071 327.069 338.85 327.807 340.706 327.809Z" fill="#ABDC66"/>
<path d="M432.553 280.309H554.058C554.21 280.311 554.362 280.299 554.512 280.273L497.045 180.733C496.695 180.113 496.186 179.597 495.57 179.238C494.955 178.879 494.256 178.69 493.543 178.69C492.831 178.69 492.132 178.879 491.516 179.238C490.901 179.597 490.392 180.113 490.041 180.733L451.474 247.532L449.627 250.728L432.553 280.309Z" fill="white"/>
<path opacity="0.2" d="M432.553 280.309H474.038L453.673 250.728L452.207 248.597L451.474 247.532L449.626 250.728L432.553 280.309Z" fill="black"/>
<path d="M364.899 280.309H469.991L449.627 250.728L448.161 248.597L421.624 210.048C421.155 209.459 420.567 208.976 419.898 208.629C419.23 208.282 418.496 208.079 417.745 208.034C416.993 207.989 416.24 208.103 415.536 208.368C414.831 208.633 414.189 209.043 413.653 209.572C413.516 209.722 413.388 209.881 413.271 210.048L364.899 280.309Z" fill="white"/>
<path d="M372.106 178.309C362.165 178.309 354.106 170.25 354.106 160.309C354.106 150.368 362.165 142.309 372.106 142.309C382.047 142.309 390.106 150.368 390.106 160.309C390.106 170.25 382.047 178.309 372.106 178.309Z" fill="white"/>
<path d="M289.957 317.737C288.335 316.845 286.452 316.546 284.633 316.891L256.113 290.24L260.847 266.476L242.122 267.491L240.448 296.335L278.179 325.718C278.344 327.079 278.857 328.374 279.667 329.479C280.477 330.584 281.558 331.463 282.805 332.03C284.052 332.598 285.425 332.835 286.79 332.72C288.156 332.605 289.469 332.14 290.603 331.372C291.738 330.603 292.655 329.555 293.269 328.33C293.882 327.104 294.17 325.742 294.105 324.373C294.04 323.004 293.625 321.675 292.898 320.513C292.172 319.351 291.159 318.395 289.957 317.737Z" fill="#FFB8B8"/>
<path d="M321.449 518.346H333.709L339.541 471.058H321.447L321.449 518.346Z" fill="#FFB6B6"/>
<path d="M318.323 530.23L357.853 530.229V529.729C357.853 525.648 356.232 521.735 353.346 518.849C350.461 515.964 346.547 514.343 342.467 514.342L318.322 514.343L318.323 530.23Z" fill="#2F2E41"/>
<path d="M229.449 518.346H241.709L247.541 471.058H229.447L229.449 518.346Z" fill="#FFB6B6"/>
<path d="M226.323 530.23L265.853 530.229V529.729C265.853 525.648 264.232 521.735 261.346 518.849C258.461 515.964 254.547 514.343 250.467 514.342L226.322 514.343L226.323 530.23Z" fill="#2F2E41"/>
<path d="M251.809 252.482C253.288 250.612 255.388 249.334 257.728 248.877C260.067 248.42 262.494 248.815 264.568 249.991C266.618 251.153 268.192 253.002 269.011 255.212C269.829 257.422 269.841 259.85 269.042 262.067L263.031 278.766L238.407 269.409L251.809 252.482Z" fill="#ABDC66"/>
<path d="M254.019 326.229C255.14 325.389 256.344 324.666 257.614 324.073L302.428 330.968L301.443 359.039C323.119 399.951 337.452 446.624 345.273 498.407L317.202 504.81C304.642 456.151 290.375 412.486 272.388 379.722L253.427 503.626L221.171 502.84C225.419 430.001 228.697 345.086 254.019 326.229Z" fill="#2F2E41"/>
<path d="M287.468 245.427C277.821 245.427 270 237.606 270 227.959C270 218.312 277.821 210.491 287.468 210.491C297.115 210.491 304.936 218.312 304.936 227.959C304.936 237.606 297.115 245.427 287.468 245.427Z" fill="#FFB8B8"/>
<path d="M249.056 272.845C248.257 268.014 249.042 263.055 251.295 258.707C253.547 254.36 257.146 250.858 261.554 248.726L281.252 249.711C284.459 250.541 287.434 252.092 289.951 254.246C292.467 256.4 294.46 259.099 295.776 262.139C304.314 282.122 305.53 307.671 301.936 336.878L255.278 325.779C261.677 311.371 256.533 292.553 249.056 272.845Z" fill="#ABDC66"/>
<path d="M309.127 223.699C309.127 221.335 308.661 218.994 307.757 216.811C306.852 214.627 305.526 212.642 303.855 210.971C302.183 209.3 300.199 207.974 298.015 207.069C295.831 206.165 293.491 205.699 291.127 205.699H290.094C286.835 203.107 282.792 201.696 278.627 201.699C273.72 201.699 269.015 203.648 265.545 207.117C262.076 210.587 260.127 215.292 260.127 220.199V243.699C272.088 243.401 285.635 245.759 300.127 249.699C296.474 239.581 294.047 230.28 295.705 223.699H309.127Z" fill="#2F2E41"/>
<path d="M346.127 304.699C344.275 304.696 342.481 305.339 341.051 306.516L303.233 296.849L295.965 273.733L280.032 283.622L292.424 309.721L339.633 317.359C340.432 318.472 341.503 319.361 342.745 319.941C343.987 320.521 345.356 320.773 346.723 320.671C348.09 320.569 349.407 320.118 350.549 319.361C351.691 318.603 352.62 317.565 353.245 316.346C353.871 315.127 354.172 313.767 354.121 312.398C354.07 311.028 353.668 309.695 352.953 308.526C352.239 307.356 351.236 306.39 350.04 305.72C348.845 305.05 347.497 304.698 346.127 304.699Z" fill="#FFB8B8"/>
<path d="M272.392 266.73C271.709 264.446 271.865 261.993 272.832 259.814C273.799 257.634 275.513 255.873 277.665 254.847C279.793 253.833 282.21 253.604 284.49 254.2C286.771 254.796 288.767 256.178 290.126 258.104L300.363 272.602L278.58 287.414L272.392 266.73Z" fill="#ABDC66"/>
</g>
<defs>
<clipPath id="clip0_323_8">
<rect width="651.254" height="531.89" fill="white" transform="matrix(-1 0 0 1 651.254 0)"/>
</clipPath>
</defs>
</svg>
