<svg width="128" height="128" viewBox="0 0 128 128" fill="none" xmlns="http://www.w3.org/2000/svg">
<g clip-path="url(#clip0_433_3)">
<path d="M65.1452 83.5569C76.6193 83.5569 85.9209 74.2553 85.9209 62.7812C85.9209 51.3071 76.6193 42.0055 65.1452 42.0055C53.6711 42.0055 44.3695 51.3071 44.3695 62.7812C44.3695 74.2553 53.6711 83.5569 65.1452 83.5569Z" fill="#FFB6B6"/>
<path d="M53.2186 86.6291L52.28 77.1413L71.0231 73.6366L82.0908 100.584L62.8427 122.719L49.1284 95.7719L53.2186 86.6291Z" fill="#FFB6B6"/>
<path d="M51.9789 81.8905L56.0766 82.8163C56.0766 82.8163 52.8554 72.6017 53.9488 71.6265C55.0421 70.6513 57.7214 72.1879 57.7214 72.1879L60.5369 75.3446L63.9665 71.8529C63.9665 71.8529 67.6898 67.2232 69.1476 65.9229C70.6054 64.6227 68.2638 59.7963 68.2638 59.7963C68.2638 59.7963 89.8919 53.9643 81.8441 43.474C81.8441 43.474 77.1256 35.2492 75.5891 37.9285C74.0525 40.6077 72.2202 36.3525 72.2202 36.3525L66.6253 37.4164C66.6253 37.4164 55.5831 30.9056 45.1027 44.8341C34.6224 58.7625 51.9789 81.8905 51.9789 81.8905Z" fill="#2F2E41"/>
<path d="M104.219 113.792C92.865 122.998 78.8186 128 64 128C50.4686 128 37.5795 123.828 26.7982 116.095C26.8174 115.893 26.8367 115.693 26.8535 115.494C27.1399 112.366 27.3949 109.325 27.5633 106.803C28.2153 97.0129 51.0556 90.4878 51.0556 90.4878C51.0556 90.4878 51.1591 90.5913 51.366 90.7717C52.6268 91.8785 57.7444 95.8917 66.7188 97.0129C74.7212 98.0138 77.3558 93.2668 78.1522 90.9931C78.3928 90.3001 78.465 89.8358 78.465 89.8358L101.957 100.93C103.49 103.119 104.089 107.835 104.207 113.136C104.212 113.355 104.217 113.571 104.219 113.792Z" fill="#D9F8A7"/>
<path d="M109.255 18.7453C97.1669 6.65744 81.0948 0 64 0C46.9053 0 30.8331 6.65744 18.7453 18.7453C6.65745 30.8331 0 46.9053 0 64C0 79.603 5.54588 94.3543 15.7089 106.002C16.6785 107.116 17.6914 108.201 18.7453 109.255C18.9931 109.503 19.2433 109.75 19.4959 109.991C20.1696 110.643 20.8554 111.281 21.5531 111.899C21.9766 112.277 22.4048 112.647 22.8379 113.011C23.1772 113.297 23.5164 113.578 23.8605 113.855C23.8677 113.862 23.8725 113.867 23.8797 113.872C24.8349 114.642 25.8069 115.383 26.7982 116.095C37.5796 123.828 50.4686 128 64 128C78.8187 128 92.865 122.998 104.219 113.792C105.145 113.042 106.052 112.262 106.943 111.456C107.729 110.744 108.499 110.01 109.255 109.255C109.493 109.017 109.731 108.776 109.965 108.533C110.614 107.864 111.245 107.183 111.86 106.493C122.295 94.7705 128 79.8244 128 64C128 46.9053 121.343 30.8331 109.255 18.7453ZM111.704 105.894C111.103 106.577 110.487 107.251 109.856 107.907C108.875 108.93 107.862 109.921 106.815 110.876C106.418 111.242 106.016 111.598 105.61 111.952C105.148 112.354 104.681 112.748 104.207 113.136C100.47 116.203 96.3777 118.85 92.0012 121.006C90.2713 121.86 88.498 122.637 86.6839 123.332C79.6367 126.037 71.988 127.519 64 127.519C56.2911 127.519 48.8999 126.138 42.0595 123.611C39.2517 122.577 36.5378 121.347 33.932 119.94C33.5495 119.733 33.1693 119.524 32.7916 119.309C30.8042 118.183 28.8818 116.954 27.0364 115.626C26.9763 115.583 26.9137 115.537 26.8535 115.494C25.5399 114.546 24.2623 113.547 23.028 112.498C22.5756 112.115 22.1281 111.728 21.6878 111.331C20.9708 110.694 20.2683 110.037 19.5826 109.363C18.2833 108.09 17.0418 106.765 15.8556 105.386C6.2773 94.2605 0.481203 79.7955 0.481203 64C0.481203 28.9756 28.9757 0.481203 64 0.481203C99.0244 0.481203 127.519 28.9756 127.519 64C127.519 80.0385 121.545 94.7056 111.704 105.894Z" fill="#3F3D56"/>
</g>
<defs>
<clipPath id="clip0_433_3">
<rect width="128" height="128" fill="white"/>
</clipPath>
</defs>
</svg>
