<svg width="310" height="300" viewBox="10 25 320 355" fill="none" xmlns="http://www.w3.org/2000/svg">
<path d="M-73.2868 287.584L73.8017 275.779C74.9485 275.686 76.0106 275.13 76.7549 274.234C77.4992 273.337 77.865 272.174 77.7719 270.998L62.0109 74.6154C61.9153 73.4398 61.3686 72.3493 60.4909 71.583C59.6131 70.8168 58.476 70.4374 57.3289 70.5281L-89.7595 82.3329C-90.9064 82.4263 -91.9685 82.9822 -92.7128 83.8786C-93.4571 84.775 -93.8228 85.9388 -93.7298 87.1146L-77.9688 283.497C-77.8732 284.673 -77.3265 285.763 -76.4487 286.529C-75.571 287.296 -74.4338 287.675 -73.2868 287.584ZM57.4306 71.7951C58.2499 71.7304 59.0621 72.0014 59.6891 72.5487C60.316 73.096 60.7065 73.8749 60.7749 74.7146L76.5359 271.097C76.6023 271.937 76.341 272.768 75.8094 273.408C75.2777 274.049 74.5191 274.446 73.7 274.513L-73.3884 286.317C-74.2078 286.382 -75.02 286.111 -75.647 285.564C-76.2739 285.016 -76.6644 284.238 -76.7328 283.398L-92.4937 87.0154C-92.5601 86.1756 -92.2989 85.3443 -91.7673 84.704C-91.2356 84.0638 -90.477 83.6667 -89.6578 83.5999L57.4306 71.7951Z" fill="#E6E6E6"/>
<path d="M-37.8712 164.75L24.5486 159.741C25.6955 159.647 26.7575 159.091 27.5018 158.195C28.2461 157.299 28.6119 156.135 28.5189 154.959L24.5024 104.913C24.4067 103.738 23.8601 102.647 22.9823 101.881C22.1046 101.115 20.9674 100.735 19.8203 100.826L-42.5995 105.836C-43.7464 105.929 -44.8085 106.485 -45.5528 107.381C-46.2971 108.278 -46.6628 109.442 -46.5698 110.617L-42.5533 160.663C-42.4576 161.839 -41.9109 162.929 -41.0332 163.695C-40.1554 164.462 -39.0183 164.841 -37.8712 164.75Z" fill="#E6E6E6"/>
<path d="M-31.0185 248.488L31.4014 243.478C32.5482 243.385 33.6103 242.829 34.3546 241.933C35.0989 241.036 35.4646 239.872 35.3716 238.697L31.3551 188.651C31.2594 187.475 30.7127 186.385 29.835 185.619C28.9573 184.852 27.8201 184.473 26.6731 184.564L-35.7468 189.573C-36.8936 189.667 -37.9557 190.223 -38.7 191.119C-39.4443 192.015 -39.8101 193.179 -39.717 194.355L-35.7005 244.401C-35.6048 245.576 -35.0582 246.667 -34.1804 247.433C-33.3027 248.199 -32.1656 248.579 -31.0185 248.488ZM26.7747 185.831C27.5941 185.766 28.4063 186.037 29.0333 186.584C29.6602 187.131 30.0507 187.91 30.119 188.75L34.1356 238.796C34.202 239.636 33.9407 240.467 33.4091 241.107C32.8774 241.748 32.1188 242.145 31.2997 242.211L-31.1202 247.221C-31.9395 247.286 -32.7518 247.015 -33.3787 246.467C-34.0057 245.92 -34.3961 245.141 -34.4645 244.302L-38.481 194.256C-38.5474 193.416 -38.2862 192.585 -37.7545 191.944C-37.2229 191.304 -36.4643 190.907 -35.6451 190.84L26.7747 185.831Z" fill="#3F3D56"/>
<path d="M-47.2045 263.814L15.2153 258.804C16.3622 258.711 17.4242 258.155 18.1685 257.258C18.9128 256.362 19.2786 255.198 19.1856 254.022L15.169 203.976C15.0734 202.801 14.5267 201.71 13.649 200.944C12.7712 200.178 11.6341 199.799 10.487 199.889L-51.9328 204.899C-53.0797 204.992 -54.1417 205.548 -54.886 206.445C-55.6303 207.341 -55.9961 208.505 -55.9031 209.68L-51.8866 259.726C-51.7909 260.902 -51.2442 261.992 -50.3665 262.759C-49.4887 263.525 -48.3516 263.904 -47.2045 263.814Z" fill="#ABDC66"/>
<path d="M-24.1734 247.218L7.1632 244.703C7.20248 244.7 7.2414 244.694 7.27953 244.684L-9.65321 219.559C-9.75681 219.402 -9.89904 219.276 -10.0653 219.194C-10.2316 219.112 -10.416 219.076 -10.5997 219.091C-10.7834 219.106 -10.9598 219.17 -11.1109 219.278C-11.2619 219.386 -11.3823 219.533 -11.4596 219.704L-19.9889 238.161L-20.3976 239.044L-24.1734 247.218Z" fill="white"/>
<path d="M132.552 198.961L279.641 187.156C280.787 187.063 281.849 186.507 282.594 185.61C283.338 184.714 283.704 183.55 283.611 182.375L273.798 60.1106C273.703 58.935 273.156 57.8445 272.278 57.0783C271.401 56.312 270.263 55.9327 269.116 56.0234L122.028 67.8282C120.881 67.9216 119.819 68.4775 119.075 69.3739C118.33 70.2703 117.965 71.4341 118.058 72.6098L127.87 194.874C127.966 196.049 128.513 197.14 129.39 197.906C130.268 198.672 131.405 199.052 132.552 198.961ZM269.218 57.2904C270.037 57.2256 270.85 57.4966 271.477 58.0439C272.103 58.5912 272.494 59.3701 272.562 60.2098L282.375 182.474C282.441 183.314 282.18 184.145 281.648 184.785C281.117 185.425 280.358 185.822 279.539 185.889L132.45 197.694C131.631 197.759 130.819 197.488 130.192 196.94C129.565 196.393 129.175 195.614 129.106 194.775L119.294 72.5106C119.227 71.6708 119.489 70.8396 120.02 70.1993C120.552 69.559 121.31 69.1619 122.13 69.0952L269.218 57.2904Z" fill="#3F3D56"/>
<path d="M110.229 223.068L257.317 211.263C258.464 211.169 259.526 210.613 260.27 209.717C261.015 208.821 261.381 207.657 261.288 206.481L251.475 84.2172C251.379 83.0417 250.833 81.9512 249.955 81.1849C249.077 80.4187 247.94 80.0393 246.793 80.13L99.7046 91.9348C98.5578 92.0282 97.4958 92.5841 96.7515 93.4805C96.0072 94.3769 95.6414 95.5407 95.7344 96.7164L105.547 218.98C105.643 220.156 106.189 221.246 107.067 222.013C107.945 222.779 109.082 223.158 110.229 223.068Z" fill="#ABDC66"/>
<path d="M164.577 188.421L239.67 182.394C239.764 182.388 239.857 182.373 239.948 182.349L199.372 122.141C199.124 121.766 198.783 121.465 198.385 121.268C197.986 121.071 197.544 120.986 197.104 121.021C196.664 121.057 196.241 121.211 195.879 121.469C195.517 121.727 195.229 122.079 195.044 122.489L174.605 166.719L173.625 168.835L164.577 188.421Z" fill="white"/>
<path opacity="0.2" d="M164.577 188.421L190.216 186.363L176.126 168.634L175.111 167.357L174.604 166.719L173.625 168.835L164.577 188.421Z" fill="black"/>
<path d="M122.766 191.777L187.715 186.564L173.625 168.835L172.611 167.558L154.251 144.453C153.931 144.104 153.543 143.826 153.112 143.64C152.682 143.453 152.218 143.361 151.751 143.37C151.284 143.379 150.825 143.488 150.403 143.691C149.98 143.894 149.605 144.185 149.301 144.547C149.223 144.649 149.152 144.756 149.089 144.868L122.766 191.777Z" fill="white"/>
<path d="M122.034 126.803C115.89 127.296 110.5 122.591 109.995 116.293C109.489 109.995 114.06 104.49 120.204 103.997C126.348 103.504 131.738 108.21 132.243 114.507C132.749 120.805 128.178 126.31 122.034 126.803Z" fill="white"/>
<path d="M78.3535 219.204C77.3053 218.719 76.1266 218.623 75.0199 218.932L56.0392 203.464L57.7567 188.174L46.236 189.746L46.6679 208.102L71.4798 224.844C71.6514 225.698 72.034 226.493 72.5908 227.153C73.1477 227.813 73.8602 228.316 74.6599 228.614C75.4596 228.911 76.3197 228.994 77.1578 228.853C77.9958 228.712 78.7837 228.353 79.4457 227.809C80.1078 227.266 80.6217 226.557 80.9384 225.75C81.2551 224.944 81.3638 224.066 81.2542 223.202C81.1445 222.338 80.8202 221.517 80.3122 220.817C79.8043 220.117 79.1298 219.561 78.3535 219.204Z" fill="#FFB8B8"/>
<path d="M108.015 344.726L115.592 344.118L116.792 313.872L105.61 314.77L108.015 344.726Z" fill="#FFB6B6"/>
<path d="M106.687 352.41L131.118 350.448L131.092 350.131C130.885 347.546 129.684 345.148 127.754 343.463C125.824 341.778 123.323 340.945 120.801 341.148L105.879 342.346L106.687 352.41Z" fill="#2F2E41"/>
<path d="M51.1574 349.289L58.7343 348.681L59.9344 318.436L48.7519 319.333L51.1574 349.289Z" fill="#FFB6B6"/>
<path d="M49.8294 356.973L74.2601 355.011L74.2347 354.695C74.0271 352.11 72.8262 349.711 70.8962 348.026C68.9662 346.341 66.4652 345.508 63.9433 345.711L49.0213 346.909L49.8294 356.973Z" fill="#2F2E41"/>
<path d="M51.459 179.758C52.2785 178.5 53.511 177.586 54.9338 177.181C56.3567 176.775 57.8762 176.905 59.2178 177.547C60.544 178.181 61.6106 179.274 62.229 180.634C62.8474 181.993 62.9779 183.531 62.5972 184.975L59.7309 195.852L44.0375 191.146L51.459 179.758Z" fill="#ABDC66"/>
<path d="M56.5747 226.366C57.2246 225.778 57.9323 225.261 58.6865 224.822L86.7334 226.967L87.5519 244.799C103.028 269.641 114.259 298.497 121.725 330.914L104.702 336.362C94.4658 306.16 83.4291 279.206 70.6465 259.343L65.2277 338.775L45.2531 339.877C44.1753 293.524 41.8837 239.568 56.5747 226.366Z" fill="#2F2E41"/>
<path d="M73.1386 173.519C67.1765 173.998 61.9457 169.432 61.4552 163.32C60.9647 157.209 65.4003 151.867 71.3624 151.388C77.3245 150.91 82.5553 155.476 83.0458 161.588C83.5363 167.699 79.1007 173.041 73.1386 173.519Z" fill="#FFB8B8"/>
<path d="M50.7935 192.794C50.0538 189.774 50.2868 186.593 51.4579 183.727C52.629 180.861 54.6752 178.464 57.2907 176.895L69.5149 176.542C71.5389 176.909 73.4563 177.744 75.1212 178.983C76.7861 180.223 78.1546 181.834 79.1225 183.694C85.4154 195.93 87.4659 212.055 86.7295 230.735L57.3296 226.019C60.5519 216.574 56.4163 204.908 50.7935 192.794Z" fill="#ABDC66"/>
<path d="M85.4195 158.681C85.2993 157.183 84.8926 155.724 84.2225 154.385C83.5524 153.047 82.6321 151.855 81.5141 150.879C80.3961 149.903 79.1024 149.162 77.7068 148.697C76.3111 148.232 74.8409 148.054 73.38 148.171L72.7419 148.222C70.5955 146.742 68.0253 146.049 65.4514 146.257C62.4191 146.5 59.6101 147.968 57.6423 150.338C55.6745 152.708 54.7092 155.786 54.9586 158.894L56.1534 173.781C63.5306 172.999 72.0229 173.821 81.1792 175.598C78.4074 169.37 76.4343 163.598 77.1247 159.347L85.4195 158.681Z" fill="#2F2E41"/>
<path d="M112.404 208.159C111.26 208.249 110.183 208.745 109.36 209.561L85.4962 205.313L79.8292 191.03L70.4848 198.085L79.4706 214.004L109.035 216.501C109.585 217.166 110.292 217.676 111.089 217.982C111.886 218.288 112.745 218.379 113.585 218.247C114.424 218.115 115.216 217.764 115.883 217.227C116.55 216.691 117.071 215.987 117.396 215.184C117.72 214.38 117.838 213.504 117.736 212.639C117.635 211.774 117.319 210.949 116.818 210.244C116.317 209.539 115.648 208.977 114.875 208.611C114.102 208.246 113.251 208.09 112.404 208.159Z" fill="#FFB8B8"/>
<path d="M64.9046 187.763C64.3662 186.35 64.3378 184.788 64.8247 183.36C65.3115 181.931 66.2815 180.73 67.5594 179.974C68.8226 179.226 70.3049 178.961 71.7444 179.225C73.1839 179.489 74.4878 180.266 75.4257 181.418L82.4894 190.095L69.7806 200.559L64.9046 187.763Z" fill="#ABDC66"/>
</svg>
